<?xml version="1.0" encoding="UTF-8" standalone="no"?><!DOCTYPE svg PUBLIC "-//W3C//DTD SVG 1.1//EN" "http://www.w3.org/Graphics/SVG/1.1/DTD/svg11.dtd"><svg width="100%" height="100%" viewBox="0 0 3767 2566" version="1.1" xmlns="http://www.w3.org/2000/svg" xmlns:xlink="http://www.w3.org/1999/xlink" xml:space="preserve" xmlns:serif="http://www.serif.com/" style="fill-rule:evenodd;clip-rule:evenodd;stroke-linejoin:round;stroke-miterlimit:2;"><g id="Logo-claro-HD.jpeg" serif:id="Logo claro HD.jpeg"><g><g><g><g><path d="M3400.184,283.407l0,1603.118c-0.427,0.555 -0.644,0 -10.367,0l-3023.542,0c-1.27,-0.594 -0,-2.31 -0,-3.465l0,-1607.744c0.922,-0.719 1.182,0 16.295,0l3017.613,0c0.711,0.333 0,0.502 0,8.091Z" style="fill:#0d1014;"/><path d="M2240.056,1078.231c-22.884,-6.696 -22.45,-14.819 -42.484,-39.422c-1.982,-2.434 -24.68,-32.652 -24.762,-32.757c-11.423,-14.719 -182.557,-240.614 -184.959,-243.685c-23.328,-29.813 -22.775,-30.149 -24.842,-32.714c-35.137,-43.611 -44.593,-69.64 -69.259,-72.178c-23.028,-2.369 -33.893,15.073 -34.785,16.152c-8.232,9.961 -14.857,18.767 -16.105,20.427c-3.571,4.747 -62.316,77.008 -66.448,81.926c-21.453,25.534 -20.909,25.885 -22.809,28.077c-6.244,7.207 -15.138,18.868 -22.738,28.04c-33.573,40.517 -33.068,40.856 -36.011,44.361c-86.293,102.781 -134.356,164.608 -144.833,174.805c-7.165,6.974 -20.109,15.475 -22.809,16.802c-22.079,10.851 -33.775,11.238 -40.869,12.157c-30.762,3.986 -72.46,-9.78 -81.392,-48.728c-2.312,-10.083 -1.597,-10.201 -1.596,-332.964c0,-66.477 -0.76,-67.132 6.74,-80.568c14.782,-26.483 75.789,-31.84 84.085,17.513c1.424,8.469 0.332,265.989 0.664,304.643c0.204,23.755 -0.758,23.707 -0.842,31.513c-0.067,6.245 4.442,5.852 8.138,0.575c7.353,-10.498 16.316,-20.916 17.415,-22.264c2.743,-3.363 30.158,-36.97 34.411,-41.959c14.96,-17.549 79.245,-96.887 80.156,-97.945c4.104,-4.765 22.04,-26.835 22.973,-27.905c6.832,-7.831 79.47,-97.306 80.074,-97.995c3.014,-3.434 33.512,-41.386 34.111,-42.091c9.982,-11.737 19.617,-26.714 35.903,-40.676c14.253,-12.219 35.584,-21.499 45.199,-23.857c38.026,-9.327 57.937,-3.719 71.705,-0.563c13.765,3.156 38.321,14.668 54.132,30.054c11.65,11.337 10.82,11.986 129.338,168.288c34.512,45.515 34.975,45.142 37.776,49.214c10.415,15.14 54.876,70.751 73.818,97.103c8.77,12.201 27.072,32.979 53.46,70.003c1.29,1.809 11.579,13.539 18.694,24.872c12.625,20.112 2.246,39.329 -0.46,43.15c-17.622,24.889 -41.921,19.867 -50.787,18.592Z" style="fill:#eaeaeb;"/><path d="M1927.452,1421.964c0.319,59.515 0.85,61.262 -8.143,67.589c-5.153,3.626 -30.714,9.611 -30.788,-18.606c-0.04,-15.354 0.017,-177.171 0.122,-178.524c1.687,-21.669 24.449,-18.459 33.647,-18.471c107.591,-0.139 108.05,-0.605 125.265,5.438c59.517,20.895 56.815,97.178 15.782,118.221c-12.578,6.45 -16.914,5.609 -16.989,10.255c-0.076,4.743 42.094,55.629 44.863,62.603c6.875,17.315 -18.316,32.545 -34.473,13.675c-0.975,-1.139 -46.735,-60.774 -47.52,-61.745c-6.647,-8.229 -6.83,-12.34 -18.303,-12.684c-4.265,-0.128 -18.394,-0.551 -53.344,-0.216c-10.144,0.097 -9.372,3.136 -10.119,12.463Z" style="fill:#eaeaea;"/><path d="M2307.496,1458.137c5.508,0.028 66.876,0.338 68.852,-0.07c8.399,-1.736 4.655,-9.087 5.698,-46.617c0.274,-9.842 -2.837,-10.033 -13.57,-10.016c-29.937,0.05 -40.94,1.651 -48.2,-5.162c-6.232,-5.848 -11.486,-29.281 17.731,-29.707c5.165,-0.075 54.366,-0.793 64.57,0.329c1.718,0.189 13.502,1.484 16.641,12.707c1.752,6.263 1.518,6.295 1.24,80.829c-0.063,16.974 2.504,32.303 -25.318,32.55c-103.043,0.914 -109.366,-1.019 -118.356,-3.767c-95.416,-29.168 -92.297,-119.422 -71.264,-157.939c21.777,-39.881 62.826,-57.333 102.022,-57.372c94.96,-0.094 95.187,0.08 98.601,1.796c14.236,7.158 17.171,31.689 -11.001,31.927c-78.084,0.661 -90.809,-2.653 -114.394,5.446c-19.922,6.841 -31.729,22.498 -33.707,25.121c-11.607,15.391 -20.535,45.583 -7.242,76.473c7.783,18.087 16.786,25.023 28.891,32.857c14.381,9.307 35.575,10.442 38.808,10.615Z" style="fill:#eaeaea;"/><path d="M1298.351,1288.175c2.997,3.122 33.448,34.836 37.074,39.338c3.726,4.626 20.926,22.635 22.78,24.576c16.977,17.774 61.708,66.557 68.056,74.079c1.844,2.185 1.927,2.038 4.085,4.026c0.375,0.345 0.383,1.272 0.907,1.201c0.795,-0.107 5.265,-2.568 5.311,-2.825c0.293,-1.631 -0.841,-1.593 -0.88,-20.644c-0.086,-42.696 0.057,-42.611 0.051,-77.033c-0.007,-40.02 -1.622,-47.281 6.344,-52.657c12.361,-8.342 32.039,-5.588 32.235,17.674c0.204,24.184 0.179,173.062 -0.265,178.623c-1.58,19.766 -26.14,24.849 -41.667,9.144c-9.883,-9.997 -27.99,-28.971 -30.407,-31.504c-1.156,-1.211 -0.715,-1.525 -13.97,-15.52c-22.759,-24.028 -87.269,-93.695 -89.33,-96.453c-3.077,-4.119 -2.471,-4.916 -5.127,-5.408c-6.421,-1.189 -4.088,7.973 -4.067,17.111c0.023,9.803 0.27,115.546 -0.094,122.536c-1.27,24.403 -32.735,22.365 -36.636,6.776c-0.959,-3.833 -0.984,-3.893 -0.957,-164.321c0.004,-22.842 -1.949,-34.984 11.901,-41.078c13.986,-6.153 25.51,3.686 27.133,5.072c5.063,4.323 4.787,4.491 7.524,7.285Z" style="fill:#e9e9ea;"/><path d="M1753.839,1458.141c0.518,0.008 21.035,-2.456 26.255,12.945c1.39,4.102 3.639,20.055 -18.573,21.623c-3.67,0.259 -149.55,0.339 -152.477,0c-20.721,-2.403 -17.317,-18.747 -17.385,-39.278c-0.043,-13.151 -0.525,-160.17 0.232,-164.389c3.271,-18.245 25.862,-15.164 36.275,-15.155c130.904,0.106 138.745,-0.864 143.785,2.373c14.518,9.323 11.625,30.8 -10.432,31.304c-11.935,0.273 -124.324,-0.038 -125.421,0.284c-6.183,1.816 -5.523,3.104 -5.631,9.03c-0.761,42.083 -0.591,42.447 0.981,45.816c2.305,4.941 5.222,2.719 84.321,3.336c27.781,0.216 40.545,-2.182 45.753,10.366c3.351,8.073 2.082,23.256 -19.112,23.67c-20.377,0.398 -102.87,-0.368 -106.709,0.549c-5.967,1.424 -5.452,5.196 -5.312,38.827c0.03,7.154 -1.305,17.024 5.076,18.539c1.802,0.428 1.841,0.186 118.374,0.16Z" style="fill:#e9e9e9;"/><path d="M792.55,1428.947c-0.834,-6.735 -0.666,-9.85 -4.137,-14.959c-11.67,-17.18 -20.725,-13.076 -93.137,-13.613c-66.674,-0.495 -86.32,-52.067 -64.52,-93.87c8.621,-16.532 31.561,-31.394 60.681,-32.448c4.254,-0.154 105.255,-0.083 106.686,-0.016c21.863,1.016 21.47,18.953 17.843,24.763c-6.828,10.937 -17.172,8.675 -44.519,8.869c-74.243,0.526 -79.831,-2.09 -95.512,5.206c-12.421,5.779 -16.939,22.58 -14.317,31.889c8.314,29.523 38.069,20.305 102.201,21.855c44.871,1.084 59.695,31.536 60.949,34.315c18.465,40.94 -4.37,87.752 -57.074,91.687c-7.455,0.557 -115.896,0.253 -118.125,0.237c-30.442,-0.224 -27.63,-23.235 -14.585,-31.409c6.913,-4.331 10.654,-3.121 109.806,-3.215c10.712,-0.01 32.937,2.423 42.159,-11.611c6.442,-9.803 5.265,-14.591 5.601,-17.679Z" style="fill:#eaeaea;"/><path d="M1860.827,905.896c31.181,-3.095 56.301,2.376 78.015,27.995c25.837,30.484 19.466,64.166 13.526,78.196c-6.36,15.024 -15.162,24.041 -23.383,30.968c-16.497,13.9 -43.099,21.017 -64.176,18.104c-75.853,-10.482 -95.491,-92.597 -47.416,-134.835c15.24,-13.39 26.668,-17.191 43.433,-20.429Z" style="fill:#32c0dc;"/><path d="M2972.225,1386.28c-1.434,-2.981 -12.871,-26.749 -18.46,-37.045c-9.594,-17.674 -9.795,-23.264 -11.127,-24.086c-0.716,-0.441 -1.716,0.243 -2.576,0.198c-0.92,-0.047 -1.88,-0.824 -2.718,-0.471c-0.353,0.149 -7.574,15.276 -9.488,19.68c-7.488,17.232 -8.764,17.527 -18.977,38.486c-28.983,59.48 -50.84,100.154 -52.103,102.085c-9.964,15.238 -41.342,6.68 -35.017,-14.284c0.879,-2.912 1.292,-2.751 17.022,-34.376c1.53,-3.075 16.322,-32.812 19.247,-38.39c2.07,-3.947 21.505,-40.998 25.5,-49.506c1.503,-3.201 28.708,-57.733 31.675,-62.254c6.057,-9.231 20.078,-15.078 32.728,-11.527c15.21,4.27 19.405,17.358 24.617,27.262c20.143,38.271 37.341,73.857 37.345,73.864c10.109,17.327 18.761,38.426 22.866,45.498c11.412,19.659 10.802,21.404 20.629,39.57c16.901,31.244 -13.615,35.279 -24.647,29.636c-6.796,-3.476 -5.771,-4.756 -56.516,-104.341Z" style="fill:#33c1de;"/><path d="M1051.989,1418.438c-0.079,61.681 1.005,62.975 -6.103,69.422c-10.198,9.25 -32.651,6.303 -33.184,-13.406c-0.806,-29.761 0.531,-29.708 -0.022,-59.522c-0.353,-19.05 -4.634,-18.005 -17.608,-32.885c-16.213,-18.595 -16.107,-18.59 -32.876,-36.707c-1.642,-1.774 -1.344,-2.037 -19.019,-21.031c-20.637,-22.177 -20.912,-22.686 -22.161,-24.996c-9.051,-16.741 13.198,-36.039 31.363,-18.306c4.624,4.514 64.799,72.267 70.401,78.576c4.134,4.654 7.834,10.748 13.856,4.461c10.457,-10.919 10.175,-11.079 44.76,-50.225c32.542,-36.834 34.718,-40.002 45.141,-39.657c10.996,0.364 27.433,13.868 10.887,31.856c-2.463,2.678 -60.103,67.765 -80.706,90.442c-5.698,6.271 -4.79,10.713 -4.729,21.98Z" style="fill:#e9e9ea;"/><path d="M2686.146,1334.397c0.055,-38.674 -0.166,-38.658 0.041,-42.014c1.601,-25.902 34.752,-22.809 37.845,-3.483c0.751,4.694 0.106,182.309 -0.034,185.544c-0.636,14.709 -12.551,19.901 -22.793,18.201c-17.09,-2.836 -15.211,-20.249 -15.184,-25.196c0.428,-79.884 -0.252,-90.959 0.125,-133.052Z" style="fill:#34bfdb;"/><path d="M1926.215,1325.614c0.053,-11.395 -2.47,-16.108 9.984,-16.218c83.094,-0.74 84.587,-0.294 91.555,1.786c31.418,9.379 28.606,42.985 17.404,55.329c-10.777,11.875 -27.599,10.567 -63.24,10.449c-49.114,-0.163 -51.095,0.815 -53.917,-1.897c-1.869,-1.796 -1.961,-2.75 -1.785,-49.449Z" style="fill:#0f1015;"/><path d="M2415.489,1696.21c-24.624,-25.761 -17.995,-88.094 40.845,-83.958c42.281,2.972 53.381,48.618 35.004,78.454c-8.805,14.295 -46.818,30.408 -75.849,5.504Z" style="fill:#acadb1;"/><path d="M1514.569,1651.865c1.108,-5.848 5.448,-39.39 47.776,-39.642c42.714,-0.254 59.242,38.649 42.164,74.646c-10.128,21.348 -41.505,24.882 -57.137,20.174c-37.048,-11.16 -33.378,-43.187 -32.803,-55.178Z" style="fill:#abacaf;"/><path d="M1436.378,551.1c-1.557,-0.502 -11.294,-3.64 -18.158,-8.984c-3.03,-2.36 -8.662,-8.552 -10.134,-10.95c-18.231,-29.706 0.521,-74.012 44.035,-72.368c57.381,2.168 63.404,73.421 18.885,90.355c-21.908,8.333 -32.092,2.638 -34.628,1.948Z" style="fill:#eaeaea;"/><path d="M1731.786,1690.286c-0.035,3.114 1.775,15.671 -5.326,17.08c-9.249,1.835 -9.92,-5.745 -10,-6.649c-0.07,-0.795 0.008,-70.746 0.015,-76.898c0.002,-1.452 -0.432,-5.926 1.327,-7.787c4.269,-4.516 17.513,-3.383 20.369,0.602c3.946,5.505 8.386,17.432 23.723,52.263c2.073,4.707 2.174,4.593 3.053,7.257c0.225,0.681 2.747,8.325 6.689,6.425c0.903,-0.435 11.936,-30.629 24.783,-58.278c4.778,-10.283 5.607,-11.907 17.738,-11.063c10.98,0.764 8.32,7.111 8.468,35.032c0.291,54.98 0.345,55.639 -2.489,57.799c-2.064,1.573 -11.643,4.009 -12.575,-5.319c-0.163,-1.635 -0.171,-38.96 -0.014,-41.949c0.733,-13.958 2.709,-15.684 0.745,-19.019c-3.766,-6.396 -6.165,0.42 -6.323,0.867c-10.092,28.663 -11.112,28.265 -22.542,56.494c-0.236,0.583 -2.46,6.075 -3.445,7.103c-4.681,4.888 -11.786,2.006 -13.358,-0.879c-1.587,-2.911 -0.959,-3.106 -16.776,-37.669c-8.359,-18.266 -7.488,-22.311 -8.733,-23.801c-0.106,-0.127 -5.8,-3.425 -5.87,-3.404c-1.665,0.5 0.142,17.836 0.266,20.278c0.078,1.545 0.213,2.028 0.276,31.514Z" style="fill:#aaabae;"/><path d="M2627.014,1639.012c-1.226,-0.055 -1.618,-2.097 -2.844,-2.152c-4.045,-0.183 -1.563,16.393 -1.561,21.976c0.011,38.982 0.16,38.945 -0.46,42.279c-1.926,10.362 -12.755,5.776 -13.81,3.549c-0.989,-2.087 -1.257,-2.653 -1.35,-28.43c-0.016,-4.497 -0.193,-53.004 0.242,-56.216c1.447,-10.677 15.898,-6.96 19.994,-2.679c0.079,0.083 23.387,32.224 36.659,50.989c8.055,11.389 7.025,12.637 9.696,12.849c7.072,0.562 3.205,-3.471 2.987,-18.86c-0.018,-1.276 0.024,-41.772 0.063,-42.107c1.046,-9.09 10.356,-7.869 13.624,-4.366c1.878,2.013 1.391,7.414 1.389,7.92c-0.028,24.506 -0.055,49.011 -0.083,73.517c-0.001,1.312 1.237,9.198 -6.521,10.032c-10.478,1.126 -14.486,-6.539 -16.483,-9.154c-0.975,-1.277 -9.264,-12.129 -12.052,-16.043c-26.371,-37.018 -27.601,-39.418 -29.49,-43.103Z" style="fill:#aaabae;"/><path d="M2003.8,1673.18c9.248,22.592 13.208,29.495 10.3,32.391c-3.985,3.969 -11.297,0.881 -13.303,-1.1c-4.405,-4.351 -5.257,-20.131 -14.883,-21.923c-0.045,-0.008 -29.609,-1.221 -34.303,0.986c-7.39,3.475 -7.433,26.229 -22.895,23.9c-9.324,-1.405 -1.437,-9.931 9.276,-37.576c1.232,-3.179 1.393,-3.084 16.602,-39.324c4.042,-9.631 5.433,-17.588 15.925,-17.382c11.381,0.224 10.865,7.909 16.625,20.585c8.463,18.625 7.76,18.82 16.656,39.442Z" style="fill:#a9aaae;"/><path d="M973.004,1694.03c0.874,-2.252 5.925,-15.271 11.641,-27.907c7.89,-17.44 7.172,-17.619 14.812,-35.164c5.986,-13.746 6.604,-17.454 14.79,-17.732c10.879,-0.369 12.415,6.963 13.906,10.959c5.256,14.085 19.02,44.568 28.684,69.423c3.659,9.411 6.327,14.667 -4.494,13.87c-8.79,-0.647 -10.628,-9.379 -13.858,-17.656c-3.11,-7.97 -5.378,-7.82 -31.864,-7.56c-18.169,0.178 -13.607,7.978 -20.851,21.024c-1.44,2.593 -10.349,7.14 -15.048,2.04c-2.044,-2.218 1.198,-8.477 2.282,-11.297Z" style="fill:#aaabaf;"/><path d="M2451.854,1696.583c-1.376,-0.035 -30.032,3.013 -33.439,-30.301c-3.317,-32.427 20.288,-47.264 44.984,-38.63c24.698,8.635 25.816,48.961 7.197,62.876c-7.974,5.959 -8.62,4.912 -18.742,6.055Z" style="fill:#0d0f13;"/><path d="M1558.134,1696.366c-6.844,-1.1 -7.379,-0.1 -15.523,-5.271c-19.558,-12.417 -18.4,-62.973 15.505,-65.557c33.968,-2.589 39.509,29.703 34.693,47.972c-7.227,27.412 -33.848,22.858 -34.675,22.856Z" style="fill:#0e1015;"/><path d="M2578.595,1405.026c-59.538,0.069 -59.532,0.302 -64.689,-0.089c-21.769,-1.652 -26.23,-33.238 3.77,-33.757c11.165,-0.193 70.802,0.124 72.318,0.17c16.056,0.486 18.03,13.792 17.796,16.686c-1.673,20.633 -28.275,16.978 -29.195,16.99Z" style="fill:#35c2dc;"/><path d="M1198.031,1696.013c4.696,-0.238 24.715,1.032 25.316,-23.279c1.338,-54.114 -2.217,-57.304 5.266,-59.04c10.042,-2.329 11.032,5.638 11.152,6.607c0.484,3.895 0.2,3.899 -0.133,49.006c-0.035,4.712 2.492,41.748 -45.485,39.578c-33.133,-1.498 -36.221,-25.642 -36.674,-29.185c-0.351,-2.741 -1.071,-58.98 0.118,-62.441c1.34,-3.898 13.597,-7.839 14.987,2.902c1.134,8.766 -2.055,51.969 2.378,63.22c5.547,14.077 22.452,12.582 23.074,12.631Z" style="fill:#adaeb1;"/><path d="M1372.866,1662.296c0.068,-21.513 0.297,-29.309 -0.803,-32.177c-2.564,-6.681 -20.236,-3.269 -24.249,-4.104c-10.269,-2.137 -5.625,-9.704 -5.237,-10.111c3.291,-3.448 11.899,-2.63 16.475,-2.674c4.266,-0.041 41.692,-0.401 53.326,-0.044c11.52,0.353 11.096,12.229 -0.121,12.726c-7.458,0.331 -20.736,-1.968 -22.75,4.864c-1.229,4.167 -0.173,65.565 -0.657,69.965c-0.104,0.944 -0.943,8.575 -10.664,6.675c-6.392,-1.249 -5.257,-3.872 -5.32,-45.12Z" style="fill:#a8a9ad;"/><path d="M2144.868,1658.811c-0.115,44.165 1.02,47.177 -5.425,48.496c-9.784,2.002 -10.676,-5.594 -10.786,-6.539c-0.197,-1.678 0.342,-68.238 -0.12,-70.066c-1.143,-4.518 -7.18,-4.766 -7.939,-4.797c-7.661,-0.314 -7.617,0.416 -15.225,0.001c-10.897,-0.594 -11.37,-11.996 -0.063,-12.555c4.908,-0.242 21.7,0.12 53.312,-0.188c1.17,-0.011 12.42,-0.121 14.57,1.119c0.476,0.274 3.357,1.936 2.911,5.872c-0.616,5.443 -8.969,5.803 -9.91,5.843c-0.913,0.039 -0.902,-0.167 -11.422,0.03c-8.074,0.151 -9.482,0.889 -9.946,8.291c-0.123,1.956 0.051,1.943 0.044,24.492Z" style="fill:#a6a7ab;"/><path d="M2293.891,1658.811c-0.122,44.811 0.974,46.942 -4.801,48.386c-10.393,2.599 -11.42,-5.359 -11.547,-6.341c-0.03,-0.233 -0.081,-79.746 0.027,-80.593c1.225,-9.614 13.666,-7.444 15.436,-3.422c1.236,2.808 0.812,5.336 0.885,41.969Z" style="fill:#acadb0;"/><path d="M1967.061,1633.204c1.397,0.054 1.185,0.677 2.563,0.73c1.988,0.076 1.724,-0.638 1.856,-0.56c0.761,0.449 0.815,1.495 1.077,2.291c8.36,25.361 9.082,25.062 9.79,27.265c1.286,4.001 1.998,4.68 -1.598,7.155c-1.217,0.837 -2.098,1.444 -18.97,0.947c-0.671,-0.02 -6.698,-0.197 -6.961,-4.299c-0.086,-1.342 2.319,-6.661 2.573,-7.222c3.303,-7.303 3.22,-11.176 9.67,-26.307Z" style="fill:#0f1014;"/><path d="M1015.703,1633.233c0.813,1.807 0.599,1.855 8.921,23.025c0.324,0.824 3.564,9.068 3.443,10.482c-0.348,4.053 -6.518,4.177 -7.199,4.191c-16.833,0.339 -17.603,-0.204 -18.798,-1.048c-4.903,-3.459 -1.479,-4.438 0.584,-9.856c6.103,-16.021 6.185,-16.375 6.528,-17.848c0.493,-2.119 0.249,-4.466 1.353,-6.381c0.102,-0.177 0.353,0.571 2.658,-0.573c1.505,-0.747 1.011,-1.248 2.512,-1.993Z" style="fill:#101115;"/></g></g></g></g></g></svg>